<svg width="750" height="750" viewBox="0 0 750 750" fill="none" xmlns="http://www.w3.org/2000/svg">
<path d="M374.76 0L699.519 187.5V562.5L374.76 750L50 562.5V187.5L374.76 0Z" fill="#DCE0E0"/>
<path d="M375.157 100L613.314 237.5V512.5L375.157 650L137 512.5V237.5L375.157 100Z" fill="#212328"/>
<path d="M238.887 401.865V493H196.267V247.727H290.098C317.5 247.727 339.231 254.858 355.291 269.121C371.462 283.383 379.548 302.25 379.548 325.722C379.548 349.755 371.631 368.454 355.796 381.818C340.073 395.183 318.005 401.865 289.592 401.865H238.887ZM238.887 367.668H290.098C305.259 367.668 316.826 364.13 324.8 357.055C332.773 349.868 336.76 339.536 336.76 326.059C336.76 312.807 332.717 302.25 324.631 294.389C316.545 286.416 305.427 282.316 291.277 282.092H238.887V367.668ZM459.565 458.972H570.916V493H416.946V247.727H459.565V458.972Z" fill="#F7F9F9"/>
</svg>
